<svg width="467" height="258" xmlns="http://www.w3.org/2000/svg" xmlns:xlink="http://www.w3.org/1999/xlink"><defs><rect id="a" x="19" y="0" width="82" height="36" rx="18"/><rect id="b" x="197" y="0" width="82" height="36" rx="18"/><rect id="c" x="365" y="0" width="82" height="36" rx="18"/><rect id="d" x="164" y="222" width="147" height="36" rx="18"/><rect id="e" x="347" y="222" width="120" height="36" rx="18"/><rect id="f" x="0" y="222" width="120" height="36" rx="18"/><linearGradient x1="50%" y1="0%" x2="50%" y2="100%" id="g"><stop stop-color="#EB7ED3" offset="0%"/><stop stop-color="#D348A7" offset="100%"/></linearGradient></defs><g fill="none" fill-rule="evenodd"><path d="M237.598 34.132v81.682" stroke="#E535AB" stroke-width="1.6"/><path d="M66 19c138.985 0 152.21 57.232 171.271 111.068M407.351 19C270.612 19 255.602 74.397 237 127.455" stroke="#E535AB" stroke-width="2"/><circle fill="#FFF" cx="309.5" cy="36.5" r="17.5"/><circle fill="#FFF" cx="165.5" cy="36.5" r="17.5"/><circle fill="#FFF" cx="237.5" cy="62.5" r="17.5"/><path d="M245.271 130.068C262.198 177.873 283.727 223 402 223M231.73 127.223C214.617 176.066 194.617 223 74 223" stroke="#14CBC4" stroke-width="2"/><path d="M237.598 124.496v98.468" stroke="#14CBC4" stroke-width="1.6"/><circle stroke="#14CBC4" stroke-width="1.6" fill="#FFF" cx="184.5" cy="198.5" r="6.5"/><circle stroke="#14CBC4" stroke-width="1.6" fill="#FFF" cx="291.5" cy="198.5" r="6.5"/><circle stroke="#14CBC4" stroke-width="1.6" fill="#FFF" cx="237.5" cy="192.5" r="6.5"/><use fill="#FFF" xlink:href="#a"/><rect stroke="#14CBC4" stroke-width="1.6" x="19.8" y=".8" width="80.4" height="34.4" rx="17.2"/><text font-family="Helvetica" font-size="11.2" letter-spacing=".4" fill="#343C5A">
            <tspan x="47.323" y="21.333">Web</tspan>
        </text><use fill="#FFF" xlink:href="#b"/><rect stroke="#14CBC4" stroke-width="1.6" x="197.8" y=".8" width="80.4" height="34.4" rx="17.2"/><text font-family="Helvetica" font-size="11.2" letter-spacing=".4" fill="#343C5A">
            <tspan x="228.5" y="21">iOS</tspan>
        </text><use fill="#FFF" xlink:href="#c"/><rect stroke="#14CBC4" stroke-width="1.6" x="365.8" y=".8" width="80.4" height="34.4" rx="17.2"/><text font-family="Helvetica" font-size="11.2" letter-spacing=".4" fill="#343C5A">
            <tspan x="384.637" y="21.333">Android</tspan>
        </text><use fill="#FFF" xlink:href="#d"/><rect stroke="#14CBC4" stroke-width="1.6" x="164.8" y="222.8" width="145.4" height="34.4" rx="17.2"/><text font-family="Helvetica" font-size="11.2" letter-spacing=".4" fill="#343C5A">
            <tspan x="204.15" y="244">Microservice</tspan>
        </text><use fill="#FFF" xlink:href="#e"/><rect stroke="#14CBC4" stroke-width="1.6" x="347.8" y="222.8" width="118.4" height="34.4" rx="17.2"/><text font-family="Helvetica" font-size="11.2" letter-spacing=".4" fill="#343C5A">
            <tspan x="380.041" y="244">Database</tspan>
        </text><use fill="#FFF" xlink:href="#f"/><rect stroke="#14CBC4" stroke-width="1.6" x=".8" y="222.8" width="118.4" height="34.4" rx="17.2"/><text font-family="Helvetica" font-size="11.2" letter-spacing=".4" fill="#343C5A">
            <tspan x="31.9" y="244">REST API</tspan>
        </text><path d="M22.801 16.98a3.514 3.514 0 0 0-.628-.263v-6.41c.21-.047.442-.143.628-.263a2.417 2.417 0 0 0 .885-3.276c-.675-1.148-2.142-1.555-3.282-.885-.21.12-.396.263-.536.43L14.305 3.11c.07-.215.093-.454.093-.67C14.398 1.1 13.327 0 12 0a2.402 2.402 0 0 0-2.398 2.415c0 .24.024.455.093.694L4.132 6.314a2.38 2.38 0 0 0-.536-.43 2.4 2.4 0 0 0-3.282.884 2.417 2.417 0 0 0 .885 3.276c.21.12.419.192.628.263v6.41c-.21.047-.442.143-.628.263a2.417 2.417 0 0 0-.885 3.276c.675 1.148 2.142 1.554 3.282.885.21-.12.396-.263.536-.43l5.563 3.204c-.07.215-.093.454-.093.67C9.602 25.924 10.673 27 12 27a2.402 2.402 0 0 0 2.398-2.415c0-.263-.047-.527-.117-.766l5.517-3.18c.163.19.373.358.582.478a2.4 2.4 0 0 0 3.283-.885c.675-1.124.28-2.583-.862-3.252ZM4.737 18.486a2.488 2.488 0 0 0-.256-.645 2.29 2.29 0 0 0-.42-.527l7.264-12.603c.21.072.442.12.675.12a2.1 2.1 0 0 0 .675-.096l7.263 12.603a2.29 2.29 0 0 0-.419.526c-.116.216-.21.407-.256.646H4.737v-.024Zm14.55-11.192a2.412 2.412 0 0 0 .232 1.865c.35.598.885.98 1.49 1.124v6.434c-.023 0-.07.023-.093.023L13.653 4.161l.07-.072 5.563 3.205Zm-9.01-3.205.07.072-7.286 12.58c-.023 0-.07-.024-.093-.024v-6.41a2.364 2.364 0 0 0 1.49-1.124c.349-.598.395-1.267.232-1.865l5.587-3.229Zm3.515 18.893A2.425 2.425 0 0 0 12 22.193c-.675 0-1.28.287-1.723.741L4.714 19.73c0-.024.023-.048.023-.072h14.526c.023.048.023.096.047.168l-5.518 3.156Z" transform="translate(225 49)" fill="url(#g)" fill-rule="nonzero"/><path d="M22.801 16.98a3.514 3.514 0 0 0-.628-.263v-6.41c.21-.047.442-.143.628-.263a2.417 2.417 0 0 0 .885-3.276c-.675-1.148-2.142-1.555-3.282-.885-.21.12-.396.263-.536.43L14.305 3.11c.07-.215.093-.454.093-.67C14.398 1.1 13.327 0 12 0a2.402 2.402 0 0 0-2.398 2.415c0 .24.024.455.093.694L4.132 6.314a2.38 2.38 0 0 0-.536-.43 2.4 2.4 0 0 0-3.282.884 2.417 2.417 0 0 0 .885 3.276c.21.12.419.192.628.263v6.41c-.21.047-.442.143-.628.263a2.417 2.417 0 0 0-.885 3.276c.675 1.148 2.142 1.554 3.282.885.21-.12.396-.263.536-.43l5.563 3.204c-.07.215-.093.454-.093.67C9.602 25.924 10.673 27 12 27a2.402 2.402 0 0 0 2.398-2.415c0-.263-.047-.527-.117-.766l5.517-3.18c.163.19.373.358.582.478a2.4 2.4 0 0 0 3.283-.885c.675-1.124.28-2.583-.862-3.252ZM4.737 18.486a2.488 2.488 0 0 0-.256-.645 2.29 2.29 0 0 0-.42-.527l7.264-12.603c.21.072.442.12.675.12a2.1 2.1 0 0 0 .675-.096l7.263 12.603a2.29 2.29 0 0 0-.419.526c-.116.216-.21.407-.256.646H4.737v-.024Zm14.55-11.192a2.412 2.412 0 0 0 .232 1.865c.35.598.885.98 1.49 1.124v6.434c-.023 0-.07.023-.093.023L13.653 4.161l.07-.072 5.563 3.205Zm-9.01-3.205.07.072-7.286 12.58c-.023 0-.07-.024-.093-.024v-6.41a2.364 2.364 0 0 0 1.49-1.124c.349-.598.395-1.267.232-1.865l5.587-3.229Zm3.515 18.893A2.425 2.425 0 0 0 12 22.193c-.675 0-1.28.287-1.723.741L4.714 19.73c0-.024.023-.048.023-.072h14.526c.023.048.023.096.047.168l-5.518 3.156Z" transform="translate(154 20)" fill="url(#g)" fill-rule="nonzero"/><path d="M22.801 16.98a3.514 3.514 0 0 0-.628-.263v-6.41c.21-.047.442-.143.628-.263a2.417 2.417 0 0 0 .885-3.276c-.675-1.148-2.142-1.555-3.282-.885-.21.12-.396.263-.536.43L14.305 3.11c.07-.215.093-.454.093-.67C14.398 1.1 13.327 0 12 0a2.402 2.402 0 0 0-2.398 2.415c0 .24.024.455.093.694L4.132 6.314a2.38 2.38 0 0 0-.536-.43 2.4 2.4 0 0 0-3.282.884 2.417 2.417 0 0 0 .885 3.276c.21.12.419.192.628.263v6.41c-.21.047-.442.143-.628.263a2.417 2.417 0 0 0-.885 3.276c.675 1.148 2.142 1.554 3.282.885.21-.12.396-.263.536-.43l5.563 3.204c-.07.215-.093.454-.093.67C9.602 25.924 10.673 27 12 27a2.402 2.402 0 0 0 2.398-2.415c0-.263-.047-.527-.117-.766l5.517-3.18c.163.19.373.358.582.478a2.4 2.4 0 0 0 3.283-.885c.675-1.124.28-2.583-.862-3.252ZM4.737 18.486a2.488 2.488 0 0 0-.256-.645 2.29 2.29 0 0 0-.42-.527l7.264-12.603c.21.072.442.12.675.12a2.1 2.1 0 0 0 .675-.096l7.263 12.603a2.29 2.29 0 0 0-.419.526c-.116.216-.21.407-.256.646H4.737v-.024Zm14.55-11.192a2.412 2.412 0 0 0 .232 1.865c.35.598.885.98 1.49 1.124v6.434c-.023 0-.07.023-.093.023L13.653 4.161l.07-.072 5.563 3.205Zm-9.01-3.205.07.072-7.286 12.58c-.023 0-.07-.024-.093-.024v-6.41a2.364 2.364 0 0 0 1.49-1.124c.349-.598.395-1.267.232-1.865l5.587-3.229Zm3.515 18.893A2.425 2.425 0 0 0 12 22.193c-.675 0-1.28.287-1.723.741L4.714 19.73c0-.024.023-.048.023-.072h14.526c.023.048.023.096.047.168l-5.518 3.156Z" transform="translate(297 23)" fill="url(#g)" fill-rule="nonzero"/><path d="M5.5 128H194.07M274.5 128H463.07" stroke="#747790" opacity=".3" stroke-linecap="square"/><text font-family="SourceSansPro-Regular, Source Sans Pro" font-size="16" fill="#747790">
            <tspan x="424.416" y="109">Client</tspan>
        </text><text font-family="SourceSansPro-Regular, Source Sans Pro" font-size="16" fill="#747790">
            <tspan x="421.044" y="154">Server</tspan>
        </text><g transform="translate(198 89)"><circle fill="#FFF" cx="40" cy="40" r="40"/><path d="M69.217 70.145H9.855V10.783h59.362z"/><g fill="#343C5A" fill-rule="nonzero"><path d="M43.28 24.632h-7.545L24.839 52.909h6.825l1.782-4.79H43.74l-1.865-5.3H35.1l4.409-12.167 7.843 22.257h6.826z"/><path d="M69.393 32.194a1.573 1.573 0 0 0-.117-.368 1.556 1.556 0 0 0-2.886 1.148l-.004.002c.686 2.445 1.041 5 1.041 7.61 0 7.483-2.914 14.518-8.205 19.81-5.29 5.29-12.326 8.204-19.808 8.204-7.483 0-14.518-2.914-19.81-8.205-5.29-5.291-8.204-12.326-8.204-19.809 0-7.482 2.914-14.517 8.205-19.808 5.29-5.292 12.326-8.205 19.809-8.205 6.682 0 13.005 2.325 18.05 6.59a3.804 3.804 0 1 0 2.235-2.182 30.997 30.997 0 0 0-20.285-7.522c-17.191 0-31.127 13.936-31.127 31.127s13.936 31.127 31.127 31.127c17.19 0 31.126-13.936 31.126-31.127 0-2.908-.401-5.722-1.147-8.392Z"/></g></g></g></svg>